<svg xmlns="http://www.w3.org/2000/svg" width="1040" height="820" viewBox="0 0 1040 820" font-family="Segoe UI, system-ui, -apple-system, sans-serif">
<rect width="1040" height="820" fill="#ffffff"/>
<defs>
<marker id="a" viewBox="0 0 10 10" refX="9" refY="5" markerWidth="7" markerHeight="7" orient="auto-start-reverse"><path d="M0 0L10 5L0 10z" fill="#334155"/></marker>
<marker id="ag" viewBox="0 0 10 10" refX="9" refY="5" markerWidth="7" markerHeight="7" orient="auto-start-reverse"><path d="M0 0L10 5L0 10z" fill="#94a3b8"/></marker>
<marker id="ap" viewBox="0 0 10 10" refX="9" refY="5" markerWidth="7" markerHeight="7" orient="auto-start-reverse"><path d="M0 0L10 5L0 10z" fill="#a855f7"/></marker>
</defs>
<text x="40" y="46" font-size="22" font-weight="700" fill="#0f172a">Anota Aí — Arquitetura (demo)</text>
<text x="40" y="70" font-size="13" fill="#64748b">SaaS multi-tenant · API REST · fila assíncrona · workers escaláveis via Docker Swarm</text>
<rect x="430" y="100" width="200" height="58" rx="12" fill="#ffffff" stroke="#1e293b" stroke-width="2"/>
<text x="530.0" y="124.0" font-size="15" font-weight="600" fill="#0f172a" text-anchor="middle">Cliente / Request</text>
<text x="530.0" y="145.0" font-size="12" font-weight="400" fill="#475569" text-anchor="middle">REST</text>
<rect x="250" y="205" width="190" height="66" rx="12" fill="#eff6ff" stroke="#3b82f6" stroke-width="2"/>
<text x="345.0" y="233.0" font-size="15" font-weight="600" fill="#0f172a" text-anchor="middle">API #1</text>
<text x="345.0" y="254.0" font-size="12" font-weight="400" fill="#475569" text-anchor="middle">Express + Prisma</text>
<rect x="600" y="205" width="190" height="66" rx="12" fill="#eff6ff" stroke="#3b82f6" stroke-width="2"/>
<text x="695.0" y="233.0" font-size="15" font-weight="600" fill="#0f172a" text-anchor="middle">API #2</text>
<text x="695.0" y="254.0" font-size="12" font-weight="400" fill="#475569" text-anchor="middle">Express + Prisma</text>
<rect x="250" y="325" width="540" height="58" rx="12" fill="#fef3c7" stroke="#f59e0b" stroke-width="2"/>
<text x="520.0" y="359.5" font-size="15" font-weight="600" fill="#0f172a" text-anchor="middle">BullMQ · Redis — Fila de Jobs</text>
<rect x="250" y="440" width="220" height="80" rx="12" fill="#ecfdf5" stroke="#10b981" stroke-width="2"/>
<text x="360.0" y="475.0" font-size="15" font-weight="600" fill="#0f172a" text-anchor="middle">Worker #1 … #k</text>
<text x="360.0" y="496.0" font-size="12" font-weight="400" fill="#475569" text-anchor="middle">consome + processa</text>
<rect x="570" y="440" width="220" height="80" rx="12" fill="#ecfdf5" stroke="#10b981" stroke-width="2"/>
<text x="680.0" y="475.0" font-size="15" font-weight="600" fill="#0f172a" text-anchor="middle">Worker #k+1 … #N</text>
<text x="680.0" y="496.0" font-size="12" font-weight="400" fill="#475569" text-anchor="middle">consome + processa</text>
<rect x="430" y="590" width="200" height="96" rx="12" fill="#f1f5f9" stroke="#64748b" stroke-width="2"/>
<text x="530.0" y="622.5" font-size="15" font-weight="600" fill="#0f172a" text-anchor="middle">MySQL</text>
<text x="530.0" y="643.5" font-size="12" font-weight="400" fill="#475569" text-anchor="middle">Shared DB</text>
<text x="530.0" y="664.5" font-size="12" font-weight="400" fill="#475569" text-anchor="middle">tenantId em cada linha</text>
<rect x="30" y="435" width="190" height="90" rx="12" fill="#faf5ff" stroke="#a855f7" stroke-width="2"/>
<text x="125.0" y="464.5" font-size="15" font-weight="600" fill="#0f172a" text-anchor="middle">AutoScaler</text>
<text x="125.0" y="485.5" font-size="12" font-weight="400" fill="#475569" text-anchor="middle">processo externo</text>
<text x="125.0" y="506.5" font-size="12" font-weight="400" fill="#475569" text-anchor="middle">service scale worker=N</text>
<rect x="820" y="150" width="200" height="86" rx="10" fill="#f8fafc" stroke="#cbd5e1" stroke-width="1.5"/>
<text x="920" y="178" font-size="13" fill="#0f172a" text-anchor="middle" font-weight="500">Escala do worker</text>
<text x="920" y="200" font-size="12" fill="#475569" text-anchor="middle" font-weight="500">inicial 2 · máx 10</text>
<text x="920" y="220" font-size="12" fill="#475569" text-anchor="middle" font-weight="500">gatilho: backlog da fila</text>
<line x1="490" y1="158" x2="360" y2="205" stroke="#334155" stroke-width="2" marker-end="url(#a)"/>
<line x1="570" y1="158" x2="690" y2="205" stroke="#334155" stroke-width="2" marker-end="url(#a)"/>
<line x1="345" y1="271" x2="430" y2="325" stroke="#334155" stroke-width="2" marker-end="url(#a)"/>
<line x1="695" y1="271" x2="610" y2="325" stroke="#334155" stroke-width="2" marker-end="url(#a)"/>
<line x1="400" y1="383" x2="360" y2="440" stroke="#334155" stroke-width="2" marker-end="url(#a)"/>
<text x="345" y="415" font-size="12" fill="#334155" text-anchor="middle" font-weight="500">jobs</text>
<line x1="640" y1="383" x2="680" y2="440" stroke="#334155" stroke-width="2" marker-end="url(#a)"/>
<line x1="400" y1="520" x2="470" y2="590" stroke="#94a3b8" stroke-width="2" stroke-dasharray="5 5" marker-end="url(#ag)"/>
<line x1="640" y1="520" x2="590" y2="590" stroke="#94a3b8" stroke-width="2" stroke-dasharray="5 5" marker-end="url(#ag)"/>
<text x="455" y="560" font-size="11" fill="#94a3b8" text-anchor="middle" font-weight="500">UPDATE</text>
<line x1="320" y1="271" x2="430" y2="600" stroke="#94a3b8" stroke-width="2" stroke-dasharray="5 5" marker-end="url(#ag)"/>
<line x1="720" y1="271" x2="600" y2="600" stroke="#94a3b8" stroke-width="2" stroke-dasharray="5 5" marker-end="url(#ag)"/>
<text x="360" y="470" font-size="11" fill="#94a3b8" text-anchor="start" font-weight="500">INSERT</text>
<line x1="250" y1="360" x2="220" y2="455" stroke="#a855f7" stroke-width="2" stroke-dasharray="6 4" marker-end="url(#ap)"/>
<text x="150" y="405" font-size="12" fill="#a855f7" text-anchor="middle" font-weight="500">lê backlog</text>
<line x1="220" y1="470" x2="250" y2="475" stroke="#a855f7" stroke-width="2" stroke-dasharray="6 4" marker-end="url(#ap)"/>
<text x="240" y="505" font-size="11" fill="#a855f7" text-anchor="start" font-weight="500">scale</text>
<line x1="40" y1="740" x2="80" y2="740" stroke="#334155" stroke-width="2" marker-end="url(#a)"/>
<text x="90" y="744" font-size="12" fill="#475569" text-anchor="start" font-weight="500">fluxo de request / jobs</text>
<line x1="290" y1="740" x2="330" y2="740" stroke="#94a3b8" stroke-width="2" stroke-dasharray="5 5" marker-end="url(#ag)"/>
<text x="340" y="744" font-size="12" fill="#475569" text-anchor="start" font-weight="500">acesso ao banco (INSERT/UPDATE)</text>
<line x1="640" y1="740" x2="680" y2="740" stroke="#a855f7" stroke-width="2" stroke-dasharray="6 4" marker-end="url(#ap)"/>
<text x="690" y="744" font-size="12" fill="#475569" text-anchor="start" font-weight="500">controle de escala (autoscaler)</text>
</svg>